<?xml version="1.0" encoding="UTF-8" ?>
<svg width="188" height="30" viewBox="0 0 188 30" fill="none" xmlns="http://www.w3.org/2000/svg">
<path d="M22.59 0.22998H6.89C3.3609 0.22998 0.5 3.09088 0.5 6.61998V22.32C0.5 25.8491 3.3609 28.71 6.89 28.71H22.59C26.1191 28.71 28.98 25.8491 28.98 22.32V6.61998C28.98 3.09088 26.1191 0.22998 22.59 0.22998Z" fill="#443E51"/>
<path d="M13.08 10.3101H9.47004L5.04004 18.6301H13.22V16.0001H9.66004L13.08 10.3101Z" fill="white"/>
<path d="M16.41 10.3101H20.02L24.45 18.6301H16.27V16.0001H19.83L16.41 10.3101Z" fill="white"/>
<path d="M42 4.8501H46V20.7401H55.55V24.1801H42V4.8501Z" fill="#443E51"/>
<path d="M61.72 8.26986H58V4.85986H61.75L61.72 8.26986ZM58 9.99986H61.75V24.0799H58V9.99986Z" fill="#443E51"/>
<path d="M71.0002 4.83992L71.7802 4.89992V7.89992L70.7802 7.83992C70.5995 7.81746 70.416 7.83542 70.2431 7.89249C70.0701 7.94956 69.912 8.04431 69.7802 8.16992C69.6052 8.38451 69.5098 8.65302 69.5102 8.92992V10.1199H71.9302V12.7299H69.4302V24.1199H65.7602V12.7299H63.6802V10.1199H65.6802V9.20992C65.5674 8.1121 65.8396 7.00921 66.4502 6.08992C66.9902 5.23992 68.2802 4.81992 70.3302 4.81992C70.5537 4.81454 70.7774 4.82121 71.0002 4.83992V4.83992Z" fill="#443E51"/>
<path d="M73.5898 12.7299V10.0999H75.5898V6.15991H79.2398V10.0999H81.5398V12.7299H79.2398V20.1999C79.192 20.5743 79.2693 20.9541 79.4598 21.2799C79.8815 21.4744 80.3491 21.5472 80.8098 21.4899H81.1698H81.5398V24.2499L79.7898 24.3199C78.0398 24.3799 76.8498 24.0699 76.2098 23.4099C75.9785 23.1346 75.8045 22.8159 75.6981 22.4725C75.5916 22.129 75.5548 21.7678 75.5898 21.4099V12.7099L73.5898 12.7299Z" fill="#443E51"/>
<path d="M93.3498 10.17C94.3446 10.6216 95.1907 11.3464 95.7898 12.26C96.3852 13.1339 96.7718 14.133 96.9198 15.18C97.0212 16.1164 97.0479 17.0594 96.9998 18H86.7498C86.7159 18.5843 86.8334 19.1675 87.0909 19.693C87.3484 20.2186 87.7373 20.6688 88.2198 21C88.825 21.3573 89.517 21.5407 90.2198 21.53C90.9414 21.5505 91.648 21.3209 92.2198 20.88C92.5393 20.6026 92.7981 20.2622 92.9798 19.88H96.7598C96.5887 20.8551 96.1084 21.7492 95.3898 22.43C94.7027 23.135 93.872 23.6838 92.9541 24.0393C92.0361 24.3947 91.0524 24.5485 90.0698 24.49C88.25 24.5184 86.4788 23.902 85.0698 22.75C83.7398 21.6 82.9998 19.71 82.9998 17.1C82.9366 16.0753 83.0813 15.0483 83.425 14.0808C83.7686 13.1134 84.3043 12.2253 84.9998 11.47C85.6601 10.8063 86.4503 10.286 87.321 9.94189C88.1917 9.59774 89.1241 9.4371 90.0598 9.47003C91.1934 9.46968 92.3144 9.7082 93.3498 10.17ZM87.8198 13.36C87.2603 13.964 86.9097 14.7317 86.8198 15.55H93.1798C93.176 15.128 93.0853 14.7112 92.9132 14.3258C92.7412 13.9404 92.4915 13.5946 92.1798 13.31C91.5666 12.7986 90.7879 12.5284 89.9898 12.55C89.592 12.5305 89.1944 12.5922 88.8213 12.7315C88.4482 12.8708 88.1074 13.0846 87.8198 13.36V13.36Z" fill="#443E51"/>
<path d="M107.37 10.16C108.04 10.5334 108.602 11.0743 109 11.73V4.72998H112.75V24.03H109.16V22.03C108.72 22.7793 108.102 23.408 107.36 23.86C106.583 24.2631 105.715 24.4594 104.84 24.43C104.039 24.4356 103.247 24.2584 102.524 23.9118C101.801 23.5653 101.167 23.0585 100.67 22.43C99.5267 20.9932 98.9344 19.195 99.0001 17.36C98.8867 15.3278 99.4764 13.3185 100.67 11.67C101.196 10.9986 101.873 10.4611 102.647 10.1013C103.42 9.74158 104.268 9.5698 105.12 9.59998C105.906 9.59102 106.68 9.78384 107.37 10.16V10.16ZM108.28 20.23C108.854 19.3376 109.141 18.2904 109.1 17.23C109.167 16.5534 109.084 15.8704 108.858 15.2293C108.631 14.5882 108.267 14.0046 107.79 13.52C107.269 13.0772 106.604 12.8391 105.92 12.85C105.45 12.8198 104.981 12.9172 104.562 13.132C104.143 13.3467 103.79 13.6709 103.54 14.07C103.016 14.9813 102.753 16.0192 102.78 17.07C102.727 18.166 102.994 19.2538 103.55 20.2C103.801 20.5855 104.15 20.8977 104.561 21.105C104.972 21.3122 105.431 21.4071 105.89 21.38C106.354 21.4082 106.816 21.3173 107.235 21.116C107.653 20.9147 108.013 20.6097 108.28 20.23V20.23Z" fill="#443E51"/>
<path d="M122.18 4.81006H126.18V20.6501H135.72V24.0801H122.18V4.81006Z" fill="#443E51"/>
<path d="M149.35 22.1799C147.895 23.5912 145.947 24.3804 143.92 24.3804C141.893 24.3804 139.945 23.5912 138.49 22.1799C137.284 20.6736 136.65 18.789 136.7 16.8599C136.656 14.9379 137.29 13.0618 138.49 11.5599C139.933 10.1249 141.885 9.31934 143.92 9.31934C145.955 9.31934 147.907 10.1249 149.35 11.5599C150.547 13.0638 151.18 14.9386 151.14 16.8599C151.186 18.7884 150.552 20.6716 149.35 22.1799V22.1799ZM146.35 20.1299C146.988 19.1634 147.293 18.0155 147.22 16.8599C147.294 15.7042 146.989 14.5559 146.35 13.5899C146.043 13.2259 145.66 12.9332 145.229 12.7325C144.797 12.5318 144.326 12.4277 143.85 12.4277C143.374 12.4277 142.903 12.5318 142.472 12.7325C142.04 12.9332 141.657 13.2259 141.35 13.5899C140.707 14.5544 140.398 15.703 140.47 16.8599C140.399 18.0167 140.708 19.1649 141.35 20.1299C141.655 20.4971 142.037 20.7926 142.469 20.9954C142.901 21.1981 143.373 21.3033 143.85 21.3033C144.327 21.3033 144.799 21.1981 145.231 20.9954C145.663 20.7926 146.045 20.4971 146.35 20.1299V20.1299Z" fill="#443E51"/>
<path d="M160.78 9.87002C161.738 10.2713 162.524 10.9971 163 11.92V9.92002H166.6V23.29C166.698 24.7234 166.378 26.1543 165.68 27.41C164.633 29.0033 162.613 29.8 159.62 29.8C158.075 29.865 156.544 29.4942 155.2 28.73C154.646 28.3993 154.183 27.9368 153.852 27.3837C153.52 26.8306 153.331 26.2041 153.3 25.56H157.3C157.359 25.919 157.539 26.247 157.81 26.49C158.399 26.8827 159.105 27.0626 159.81 27C160.337 27.0642 160.872 26.9713 161.347 26.7329C161.822 26.4946 162.216 26.1213 162.48 25.66C162.832 24.7428 162.982 23.7605 162.92 22.78V21.87C162.63 22.3944 162.243 22.8592 161.78 23.24C160.943 23.8311 159.933 24.1267 158.91 24.08C158.088 24.1107 157.269 23.9547 156.516 23.624C155.763 23.2932 155.094 22.7961 154.56 22.17C153.411 20.6992 152.829 18.8643 152.92 17C152.856 15.1115 153.403 13.2528 154.48 11.7C154.984 11.0014 155.653 10.4391 156.428 10.0638C157.203 9.68843 158.06 9.51188 158.92 9.55001C159.555 9.53333 160.187 9.64208 160.78 9.87002V9.87002ZM162 20C162.673 19.1064 162.991 17.9944 162.89 16.88C162.964 15.7944 162.668 14.7156 162.05 13.82C161.78 13.4792 161.435 13.2066 161.04 13.0242C160.646 12.8418 160.214 12.7547 159.78 12.77C159.196 12.7406 158.618 12.9037 158.136 13.2343C157.654 13.5649 157.293 14.0447 157.11 14.6C156.83 15.3682 156.697 16.1826 156.72 17C156.706 17.7513 156.849 18.4971 157.14 19.19C157.331 19.7467 157.7 20.2252 158.19 20.5521C158.679 20.879 159.262 21.0364 159.85 21C160.259 20.9981 160.663 20.9077 161.034 20.7351C161.405 20.5625 161.735 20.3118 162 20V20Z" fill="#443E51"/>
<path d="M172.74 8.25009H169V4.84009H172.75L172.74 8.25009ZM169 9.94009H172.75V24.0701H169V9.94009Z" fill="#443E51"/>
<path d="M184.13 14.8399C184.066 14.3318 183.884 13.8457 183.6 13.4199C183.372 13.128 183.076 12.8968 182.738 12.7468C182.399 12.5968 182.029 12.5326 181.66 12.5599C181.087 12.5358 180.523 12.7052 180.059 13.0408C179.595 13.3764 179.257 13.8587 179.1 14.4099C178.832 15.2565 178.71 16.1424 178.74 17.0299C178.711 17.8746 178.833 18.7178 179.1 19.5199C179.258 20.0522 179.591 20.516 180.044 20.837C180.497 21.1579 181.045 21.3174 181.6 21.2899C181.94 21.3233 182.283 21.2775 182.602 21.1561C182.921 21.0346 183.208 20.8408 183.44 20.5899C183.831 20.0587 184.063 19.4277 184.11 18.7699H187.88C187.788 19.9405 187.365 21.0607 186.66 21.9999C186.074 22.8034 185.295 23.4462 184.395 23.8692C183.495 24.2922 182.503 24.4815 181.51 24.4199C180.578 24.4991 179.641 24.3596 178.773 24.0123C177.905 23.6651 177.13 23.1198 176.51 22.4199C175.387 20.91 174.819 19.0596 174.9 17.1799C174.777 15.1384 175.41 13.1232 176.68 11.5199C177.299 10.8437 178.061 10.3135 178.91 9.96759C179.759 9.62171 180.674 9.46879 181.59 9.51987C183.129 9.4509 184.65 9.86716 185.94 10.7099C186.559 11.2242 187.059 11.8672 187.404 12.5943C187.75 13.3214 187.932 14.115 187.94 14.9199L184.13 14.8399Z" fill="#443E51"/>
</svg>
